<?xml version="1.0" standalone="no"?>
<!DOCTYPE svg PUBLIC "-//W3C//DTD SVG 20010904//EN"
 "http://www.w3.org/TR/2001/REC-SVG-20010904/DTD/svg10.dtd">
<svg version="1.0" xmlns="http://www.w3.org/2000/svg"
 width="108.000000pt" height="108.000000pt" viewBox="0 0 108.000000 108.000000"
 preserveAspectRatio="xMidYMid meet">
<metadata>
Created by potrace 1.11, written by Peter Selinger 2001-2013
</metadata>
<g transform="translate(0.000000,108.000000) scale(0.100000,-0.100000)"
fill="#000000" stroke="none">
<path d="M528 975 c-2 -1 -66 -6 -143 -9 -160 -8 -208 -14 -216 -28 -12 -19
-3 -462 10 -501 7 -21 10 -45 6 -55 -3 -9 -3 -13 2 -8 4 4 15 -9 23 -28 15
-37 109 -154 123 -155 4 -1 19 -8 33 -17 20 -14 22 -19 12 -33 -12 -14 -11
-14 4 -3 14 12 20 11 38 -1 11 -7 17 -17 12 -22 -4 -5 -2 -5 4 -2 6 3 32 -5
57 -19 26 -13 47 -22 47 -18 0 4 7 1 15 -6 13 -11 14 -10 10 2 -4 10 4 20 27
29 18 8 36 13 41 11 4 -1 7 3 7 8 0 6 5 10 10 10 6 0 20 9 32 20 24 22 44 27
32 8 -4 -7 -3 -8 5 -4 6 4 9 11 6 16 -5 8 45 46 58 42 4 -1 6 4 5 10 -2 7 3
12 10 10 8 -1 11 2 7 8 -3 5 1 13 9 16 9 3 14 10 11 14 -3 5 3 15 13 22 11 7
20 15 20 18 0 3 5 16 10 30 6 14 15 38 21 53 6 15 14 42 17 60 8 41 12 474 4
487 -7 11 -48 16 -200 25 -63 4 -129 8 -147 10 -17 2 -33 2 -35 0z m55 -57
c13 3 18 1 13 -6 -3 -6 -2 -14 4 -17 6 -4 9 -1 8 5 -2 7 7 14 20 16 16 3 21 0
16 -8 -5 -7 -3 -8 6 -3 11 7 59 7 140 0 19 -2 37 -4 40 -5 3 -1 8 -2 13 -1 11
2 8 -387 -4 -439 -16 -72 -47 -129 -97 -179 -47 -46 -179 -131 -204 -131 -25
0 -162 91 -206 136 -87 92 -102 154 -102 420 0 195 0 195 21 189 15 -5 19 -4
14 5 -6 9 -2 9 15 0 12 -7 20 -8 17 -2 -4 5 21 10 60 11 36 1 71 5 76 8 6 4 7
1 2 -7 -6 -10 -4 -11 6 -4 8 5 29 9 47 10 19 2 36 5 39 8 3 3 13 2 21 -3 8 -5
24 -6 35 -3z"/>
<path d="M496 815 c-9 -9 -16 -25 -16 -35 0 -28 -18 -34 -45 -16 -33 22 -48
20 -73 -7 -26 -28 -27 -45 -6 -76 18 -25 11 -39 -24 -46 -36 -7 -42 -14 -42
-54 0 -37 19 -68 33 -54 4 3 7 1 7 -6 0 -7 7 -11 15 -8 22 9 28 -10 11 -35
-21 -30 -20 -51 4 -73 11 -10 18 -21 16 -24 -7 -11 42 -5 56 6 18 16 42 20 43
8 3 -20 25 -65 32 -66 35 -3 81 -3 78 0 -3 2 2 16 11 32 8 16 11 29 7 29 -4 0
-2 5 4 11 8 8 17 7 34 -5 31 -21 52 -20 74 4 10 11 21 17 26 15 11 -7 -8 54
-22 71 -14 18 -7 26 34 40 28 9 32 16 35 52 3 40 2 42 -37 58 -45 18 -47 22
-26 50 21 27 18 47 -8 72 -28 26 -40 27 -73 6 -28 -19 -35 -15 -50 29 -9 27
-16 32 -46 35 -23 2 -41 -3 -52 -13z"/>
</g>
</svg>
